<svg width="80" height="80" viewBox="0 0 80 80" fill="none" xmlns="http://www.w3.org/2000/svg">
<rect x="5" y="15" width="70" height="60" rx="14" fill="#EEF6FF"/>
<path d="M8 56C8 53.2386 10.2386 51 13 51H67C69.7614 51 72 53.2386 72 56V60C72 66.6274 66.6274 72 60 72H20C13.3726 72 8 66.6274 8 60V56Z" fill="#FF5B5B"/>
<g filter="url(#filter0_d_1315_49)">
<rect x="5" y="11" width="70" height="60" rx="14" fill="#EEF6FF"/>
</g>
<path d="M8 52C8 49.2386 10.2386 47 13 47H67C69.7614 47 72 49.2386 72 52V56C72 62.6274 66.6274 68 60 68H20C13.3726 68 8 62.6274 8 56V52Z" fill="#FF5B5B"/>
<circle cx="24" cy="17" r="3" fill="#94AAC4"/>
<circle cx="56" cy="17" r="3" fill="#94AAC4"/>
<circle cx="40" cy="17" r="3" fill="#94AAC4"/>
<rect x="22" y="5" width="4" height="13" rx="2" fill="#BEDDFF"/>
<rect x="54" y="5" width="4" height="13" rx="2" fill="#BEDDFF"/>
<rect x="38" y="5" width="4" height="13" rx="2" fill="#BEDDFF"/>
<defs>
<filter id="filter0_d_1315_49" x="1" y="11" width="78" height="68" filterUnits="userSpaceOnUse" color-interpolation-filters="sRGB">
<feFlood flood-opacity="0" result="BackgroundImageFix"/>
<feColorMatrix in="SourceAlpha" type="matrix" values="0 0 0 0 0 0 0 0 0 0 0 0 0 0 0 0 0 0 127 0" result="hardAlpha"/>
<feOffset dy="4"/>
<feGaussianBlur stdDeviation="2"/>
<feComposite in2="hardAlpha" operator="out"/>
<feColorMatrix type="matrix" values="0 0 0 0 0 0 0 0 0 0 0 0 0 0 0 0 0 0 0.25 0"/>
<feBlend mode="normal" in2="BackgroundImageFix" result="effect1_dropShadow_1315_49"/>
<feBlend mode="normal" in="SourceGraphic" in2="effect1_dropShadow_1315_49" result="shape"/>
</filter>
</defs>
</svg>
